<?xml version="1.0" encoding="UTF-8" standalone="no"?>
<!-- Created with Inkscape (http://www.inkscape.org/) -->

<svg
   version="1.1"
   id="svg2"
   width="200"
   height="199.99998"
   viewBox="0 0 200 199.99998"
   sodipodi:docname="ucr.jpg"
   xmlns:inkscape="http://www.inkscape.org/namespaces/inkscape"
   xmlns:sodipodi="http://sodipodi.sourceforge.net/DTD/sodipodi-0.dtd"
   xmlns="http://www.w3.org/2000/svg"
   xmlns:svg="http://www.w3.org/2000/svg">
  <defs
     id="defs6" />
  <sodipodi:namedview
     id="namedview4"
     pagecolor="#ffffff"
     bordercolor="#999999"
     borderopacity="1"
     inkscape:showpageshadow="0"
     inkscape:pageopacity="0"
     inkscape:pagecheckerboard="0"
     inkscape:deskcolor="#d1d1d1"
     showgrid="false" />
  <g
     inkscape:groupmode="layer"
     inkscape:label="Image"
     id="g8"
     transform="translate(24.731174,-166.66667)">
    <g
       id="g116"
       transform="matrix(0.22222222,0,0,0.22222222,-24.731174,166.66667)"
       inkscape:export-filename="ucr.svg"
       inkscape:export-xdpi="21.33"
       inkscape:export-ydpi="21.33">
      <path
         style="fill:#f7f9fb"
         d="M 220.73993,540.47265 C 192.48457,535.16323 176.775,521.94379 170.26678,498 168.62013,491.94197 168.5,482.66054 168.5,361.5 v -130 l 24.6133,-0.26717 c 19.7427,-0.2143 24.83594,0.001 25.73838,1.08845 0.81694,0.98435 1.19672,35.29967 1.38669,125.29418 L 220.5,481.554 l 2.54437,4.94389 c 2.01755,3.92023 3.64588,5.51933 7.8642,7.723 4.69798,2.45426 6.39949,2.77911 14.5564,2.77911 14.44829,0 20.12768,-2.77056 24.41336,-11.90948 L 272.5,479.5 l 0.5,-124 0.5,-124 h 25 25 l 0.26016,127.5 c 0.28979,142.02 0.50651,136.91044 -6.40446,151 -7.06874,14.4112 -20.41146,24.26825 -39.3557,29.07437 -11.2208,2.84669 -45.14351,3.67508 -57.26007,1.39828 z M 431.5,541.29317 c -24.47278,-3.32146 -43.11577,-14.53216 -50.98876,-30.66138 -7.38693,-15.13342 -6.93659,-7.64033 -7.27268,-121.00633 -0.33754,-113.85521 -0.35979,-113.40239 6.26041,-127.42039 4.05826,-8.59323 12.30515,-17.72634 20.50296,-22.70624 7.51696,-4.56631 21.49894,-9.11417 32.47228,-10.56213 13.11069,-1.72998 38.73205,-0.68729 49.52579,2.01551 19.89125,4.98085 34.08814,15.32402 41.38782,30.15317 6.07777,12.34688 6.67518,17.4671 6.37584,54.64616 L 529.5,348.5 h -25 -25 L 478.90558,320 c -0.37707,-18.07929 -1.04127,-29.89703 -1.81654,-32.32078 -1.84274,-5.76101 -7.37004,-11.27967 -13.25508,-13.23437 -3.74356,-1.24341 -7.43263,-1.56975 -14.33329,-1.26794 -8.16696,0.35719 -9.8735,0.76575 -14.09172,3.37368 -3.38819,2.09475 -5.55064,4.42681 -7.35419,7.93098 l -2.55476,4.96373 -0.28749,93.02735 c -0.20075,64.96004 0.0431,94.38505 0.80831,97.52735 2.85527,11.72549 10.57943,16.97755 24.97918,16.98465 4.675,0.002 10.1998,-0.46784 12.27733,-1.04478 5.05726,-1.40441 10.59248,-6.43596 13.13511,-11.93987 1.94594,-4.21231 2.1004,-6.59377 2.416,-37.25 L 479.16559,414 H 504.5828 530 l -0.0174,37.25 c -0.0195,41.80275 -0.51917,46.29633 -6.4995,58.44983 -10.91848,22.18901 -34.30667,32.50874 -72.86413,32.15034 -8.86546,-0.0824 -17.46901,-0.33306 -19.11901,-0.557 z m 149.96847,-3.52565 C 581.20326,537.07039 581.10185,467.875 581.24313,384 L 581.5,231.5 623,231.19763 c 24.65761,-0.17966 45.81727,0.13282 52.13783,0.76995 36.42097,3.67133 56.5619,19.0246 62.47669,47.62548 1.23471,5.97044 1.45179,14.6299 1.19331,47.60249 l -0.31596,40.30445 -2.76499,7.82783 c -1.52075,4.30531 -4.25548,10.15783 -6.07718,13.0056 -3.76201,5.88097 -12.29322,13.9339 -17.66436,16.67405 -1.99053,1.01549 -4.15217,2.48861 -4.80366,3.27361 -0.94391,1.13734 3.19744,14.2733 20.38761,64.66763 11.86467,34.78221 21.32943,63.87283 21.0328,64.64583 -0.44341,1.15552 -4.99453,1.40545 -25.59214,1.40545 -25.02431,0 -25.05394,-0.003 -26.03069,-2.25 -0.53782,-1.2375 -9.35495,-28.35 -19.59361,-60.25 -10.23866,-31.9 -19.06908,-58.5625 -19.62314,-59.25 -1.46923,-1.82305 -23.10978,-1.74142 -24.63213,0.0929 -0.78551,0.94647 -1.19066,19.02796 -1.37245,61.25 L 631.5,538.5 l -24.77466,0.26752 c -19.27932,0.20819 -24.88162,-0.0136 -25.25687,-1 z m 89.80018,-167.14786 c 6.8904,-2.0737 10.6817,-5.28542 13.60968,-11.52914 L 687.5,353.5 V 325 c 0,-31.48596 -0.44135,-34.5857 -5.79208,-40.67992 -5.78223,-6.58569 -9.87014,-7.71453 -29.48561,-8.14226 -12.61963,-0.27518 -17.67462,-0.0473 -18.75,0.84516 C 632.21555,278.066 632,284.87627 632,323.54066 c 0,24.91267 0.27314,46.00757 0.60699,46.87755 0.52003,1.35519 3.00427,1.58179 17.34107,1.58179 11.34814,0 18.21027,-0.44427 21.32059,-1.38034 z"
         id="path122" />
      <path
         style="fill:#fab61c"
         d="M 0,842 C 0,810.1 0.1989431,784 0.44209577,784 0.68524845,784 13.622748,781.10643 29.192096,777.56985 44.761443,774.03327 75.5,767.08002 97.5,762.11819 c 22,-4.96183 59.125,-13.33938 82.5,-18.61676 23.375,-5.27739 107.3,-24.22263 186.5,-42.10053 79.2,-17.87791 153.675,-34.70669 165.5,-37.3973 11.825,-2.69061 37.7,-8.54313 57.5,-13.0056 33.82899,-7.62429 50.15571,-11.31534 114.75,-25.94203 14.4375,-3.26922 44.475,-10.04628 66.75,-15.06013 55.37758,-12.46487 99.97381,-22.54186 115.32199,-26.05823 7.05209,-1.61569 13.01459,-2.93761 13.25,-2.93761 0.2354,0 0.42801,8.27686 0.42801,18.39301 0,13.77761 -0.31367,18.52011 -1.25,18.89951 -1.67738,0.67967 -196.44006,84.79757 -219.25,94.69396 -9.9,4.29524 -49.275,21.30691 -87.5,37.80371 -38.225,16.49679 -131.62128,56.81769 -207.54729,89.60199 L 246.40542,900 H 123.20271 0 Z"
         id="path120" />
      <path
         style="fill:#003da3"
         d="m 249,899.07144 c 1.31805,-0.76248 75.51266,-32.83713 343,-148.28035 38.225,-16.49729 77.6,-33.50937 87.5,-37.80461 22.80994,-9.89639 217.57262,-94.01429 219.25,-94.69396 0.99649,-0.40378 1.25,28.11144 1.25,140.60049 V 900 L 573.75,899.9696 C 388.89767,899.95236 248.1501,899.5631 249,899.07144 Z M 0,392 V 0 h 450 450 v 290.40224 290.40223 l -11.25,2.58507 c -14.27105,3.27926 -55.73082,12.64789 -113.25,25.591 -24.75,5.56931 -56.925,12.82771 -71.5,16.12978 -54.1341,12.26448 -79.40619,17.97833 -114.5,25.88768 -19.8,4.46247 -45.675,10.31499 -57.5,13.0056 -11.825,2.69061 -86.3,19.51939 -165.5,37.3973 -79.2,17.8779 -163.125,36.82314 -186.5,42.10053 -23.375,5.27738 -60.5,13.65493 -82.5,18.61676 -22,4.96183 -52.738557,11.91508 -68.307904,15.45166 C 13.622748,781.10643 0.68524845,784 0.44209577,784 0.1989431,784 0,607.6 0,392 Z M 278,539.07437 C 296.94424,534.26825 310.28696,524.4112 317.3557,510 c 6.91097,-14.08956 6.69425,-8.98 6.40446,-151 L 323.5,231.5 h -25 -25 l -0.5,124 -0.5,124 -2.62167,5.59052 C 265.59265,494.22944 259.91326,497 245.46497,497 c -8.15691,0 -9.85842,-0.32485 -14.5564,-2.77911 -4.21832,-2.20367 -5.84665,-3.80277 -7.8642,-7.723 L 220.5,481.554 220.23837,357.61546 c -0.18997,-89.99451 -0.56975,-124.30983 -1.38669,-125.29418 -0.90244,-1.08736 -5.99568,-1.30275 -25.73838,-1.08845 L 168.5,231.5 v 130 c 0,121.16054 0.12013,130.44197 1.76678,136.5 6.50822,23.94379 22.21779,37.16323 50.47315,42.47265 12.11656,2.2768 46.03927,1.44841 57.26007,-1.39828 z m 197.61901,1.39908 c 11.28495,-1.93977 17.16688,-3.83057 25.72344,-8.26903 9.18508,-4.76449 17.64027,-13.35865 22.14069,-22.50459 5.98033,-12.1535 6.48001,-16.64708 6.4995,-58.44983 L 530,414 h -25.4172 -25.41721 l -0.33715,32.75 c -0.3156,30.65623 -0.47006,33.03769 -2.416,37.25 -2.54263,5.50391 -8.07785,10.53546 -13.13511,11.93987 -2.07753,0.57694 -7.60233,1.04709 -12.27733,1.04478 -14.39975,-0.007 -22.12391,-5.25916 -24.97918,-16.98465 -0.76518,-3.1423 -1.00906,-32.56731 -0.80831,-97.52735 L 425.5,289.4453 l 2.55476,-4.96373 c 1.80355,-3.50417 3.966,-5.83623 7.35419,-7.93098 4.21822,-2.60793 5.92476,-3.01649 14.09172,-3.37368 6.90066,-0.30181 10.58973,0.0245 14.33329,1.26794 5.88504,1.9547 11.41234,7.47336 13.25508,13.23437 0.77527,2.42375 1.43947,14.24149 1.81654,32.32078 L 479.5,348.5 h 25 25 l 0.26366,-32.74846 C 530.063,278.57248 529.46559,273.45226 523.38782,261.10538 516.08814,246.27623 501.89125,235.93306 482,230.95221 c -10.79374,-2.7028 -36.4151,-3.74549 -49.52579,-2.01551 -33.0004,4.35447 -53.19138,21.6584 -57.97902,49.68876 -1.35613,7.93973 -1.51941,22.36264 -1.25663,111 0.33609,113.366 -0.11425,105.87291 7.27268,121.00633 7.87299,16.12922 26.51598,27.33992 50.98876,30.66138 8.20618,1.11375 35.8598,0.59995 44.11901,-0.81972 z m 156.13892,-61.88054 c 0.18179,-42.22204 0.58694,-60.30353 1.37245,-61.25 1.52235,-1.83433 23.1629,-1.91596 24.63213,-0.0929 0.55406,0.6875 9.38448,27.35 19.62314,59.25 10.23866,31.9 19.05579,59.0125 19.59361,60.25 0.97675,2.24744 1.00638,2.25 26.03069,2.25 20.59761,0 25.14873,-0.24993 25.59214,-1.40545 0.29663,-0.773 -9.16813,-29.86362 -21.0328,-64.64583 -17.19017,-50.39433 -21.33152,-63.53029 -20.38761,-64.66763 0.65149,-0.785 2.81313,-2.25812 4.80366,-3.27361 5.37114,-2.74015 13.90235,-10.79308 17.66436,-16.67405 1.8217,-2.84777 4.55643,-8.70029 6.07718,-13.0056 l 2.76499,-7.82783 0.31596,-40.30445 c 0.25848,-32.97259 0.0414,-41.63205 -1.19331,-47.60249 C 731.69973,250.99218 711.5588,235.63891 675.13783,231.96758 668.81727,231.33045 647.65761,231.01797 623,231.19763 L 581.5,231.5 581.24313,384 c -0.14128,83.875 -0.0399,153.07039 0.22534,153.76752 0.37525,0.98637 5.97755,1.20819 25.25687,1 L 631.5,538.5 Z m 0.84906,-108.1747 C 632.27314,369.54823 632,348.45333 632,323.54066 c 0,-38.66439 0.21555,-45.47466 1.47231,-46.51768 1.07538,-0.89249 6.13037,-1.12034 18.75,-0.84516 19.61547,0.42773 23.70338,1.55657 29.48561,8.14226 C 687.05865,290.4143 687.5,293.51404 687.5,325 v 28.5 l -2.62167,5.59052 C 679.88217,369.7445 673.77927,372 649.94806,372 c -14.3368,0 -16.82104,-0.2266 -17.34107,-1.58179 z"
         id="path118" />
    </g>
  </g>
</svg>
